<svg width="195" height="48" viewBox="0 0 195 48" fill="none" xmlns="http://www.w3.org/2000/svg">
<g clip-path="url(#clip0_9_506)">
<path d="M32.7811 8.83615C30.5601 7.85633 29.148 7.4429 26.7427 7.11036C24.2463 6.76523 22.6495 6.78042 20.1511 7.11037C19.8293 7.15287 19.4666 7.2199 19.093 7.29977C18.6641 7.39146 18.7619 8.03466 19.2002 8.04929C19.5861 8.06216 19.9595 8.08668 20.2894 8.12796C22.4228 8.39492 24.2895 8.74073 26.2928 9.52011C28.3374 10.3155 31.445 11.8686 32.1978 12.2484C32.3039 12.3019 32.4285 12.302 32.5304 12.2409C32.9145 12.0106 33.7924 11.3995 33.1499 10.9531C32.5411 10.5302 31.8138 9.98831 31.504 9.75578C31.4083 9.68399 31.2846 9.66284 31.1703 9.69827C30.9317 9.77222 30.5665 9.88305 30.776 9.8026C31.0756 9.68755 31.9393 10.26 33.9335 10.9531C35.5994 11.5321 35.3734 11.8148 36.8836 12.725C38.5187 13.7103 40.2673 15.1359 40.6051 15.4148C40.6443 15.4472 40.6751 15.4866 40.6977 15.532L42.482 19.1175C42.4835 19.1204 42.4851 19.1231 42.4869 19.1257C42.5288 19.185 42.6146 19.1399 42.5871 19.0727C42.2423 18.2292 41.4238 16.376 40.4958 15.3251C39.2818 13.9502 38.6047 12.4274 37.091 11.3903C35.311 10.1708 34.7632 9.71055 32.7811 8.83615Z" fill="url(#paint0_linear_9_506)"/>
<path d="M14.758 39.1639C16.979 40.1437 18.3911 40.5572 20.7964 40.8897C23.2928 41.2348 24.8896 41.2196 27.388 40.8897C27.7099 40.8472 28.0725 40.7801 28.4461 40.7003C28.875 40.6086 28.7772 39.9654 28.3389 39.9507C27.953 39.9379 27.5796 39.9134 27.2497 39.8721C25.1163 39.6051 23.2496 39.2593 21.2463 38.48C19.4308 37.7737 16.7773 36.4701 15.6783 35.9208C15.4397 35.8016 15.169 35.9675 15.2116 36.2305C15.2789 36.6458 15.4553 37.191 15.9103 37.5072C16.1267 37.6576 16.4548 37.8364 16.818 38.0173C16.8922 38.0542 16.8404 38.1678 16.7631 38.1974C16.4635 38.3125 15.5998 37.74 13.6056 37.0469C11.9397 36.468 12.1657 36.1852 10.6555 35.2751C9.0204 34.2897 7.27179 32.8642 6.93397 32.5852C6.89484 32.5529 6.86403 32.5134 6.84143 32.468L5.05706 28.8825C5.05564 28.8797 5.05401 28.877 5.05218 28.8743C5.01025 28.8151 4.92451 28.8602 4.95198 28.9274C5.29683 29.7709 6.11537 31.6241 7.04332 32.675C8.25731 34.0498 8.93443 35.5727 10.4481 36.6098C12.2281 37.8293 12.7759 38.2895 14.758 39.1639Z" fill="url(#paint1_linear_9_506)"/>
<path d="M9.86544 13.4152C14.3419 10.1745 22.7776 11.7954 24.9909 12.7079C25.2302 12.8067 25.2209 13.0936 24.9968 13.2232C22.9465 14.4087 14.7923 19.4098 13.7322 24.5337C12.4043 30.9513 18.8373 40.5676 18.8373 40.5676C18.8373 40.5676 17.3508 40.2469 15.4954 39.6472C11.0411 38.2074 7.46853 34.1937 5.87824 31.3174C2.33107 24.9017 4.05801 17.6194 9.86544 13.4152Z" fill="url(#paint2_linear_9_506)"/>
<path d="M9.86544 13.4152C14.3419 10.1745 22.7776 11.7954 24.9909 12.7079C25.2302 12.8067 25.2209 13.0936 24.9968 13.2232C22.9465 14.4087 14.7923 19.4098 13.7322 24.5337C12.4043 30.9513 18.8373 40.5676 18.8373 40.5676C18.8373 40.5676 17.3508 40.2469 15.4954 39.6472C11.0411 38.2074 7.46853 34.1937 5.87824 31.3174C2.33107 24.9017 4.05801 17.6194 9.86544 13.4152Z" fill="url(#paint3_linear_9_506)"/>
<path d="M38.1165 35.0494C33.6401 38.2902 25.2044 36.6692 22.9911 35.7567C22.7517 35.658 22.7611 35.371 22.9852 35.2414C25.0355 34.0559 33.1897 29.0548 34.2498 23.9309C35.5777 17.5133 29.2548 7.57043 29.2548 7.57043C29.2548 7.57043 30.5455 7.89258 32.3202 8.51387C36.7383 10.0606 40.5134 14.2709 42.1037 17.1472C45.6509 23.5629 43.924 30.8451 38.1165 35.0494Z" fill="url(#paint4_linear_9_506)"/>
<path d="M23.2114 30.1776L29.0506 27.459L29.2046 21.224L24.9889 18.4113L19.0862 20.8107L18.9957 27.3648L23.2114 30.1776Z" fill="#E3C819"/>
<path d="M26.617 25.8353L29.0506 27.459L29.2046 21.224L24.9889 18.4113L19.0862 20.8107L23.5894 23.8152L26.617 25.8353Z" fill="#FFE11F"/>
<path d="M23.8576 23.9942L23.0563 26.0611L21.7934 29.2315L18.9766 27.3521L19.0862 20.8107L23.5893 23.8152L23.8576 23.9942Z" fill="#D4BB18"/>
<path d="M23.8576 23.9943L24.3787 21.0209L24.9761 18.4304L19.0862 20.8107L23.5894 23.8153L23.8576 23.9943Z" fill="#FFEA65"/>
</g>
<path d="M62.384 33.24C61.168 33.24 60.056 33.032 59.048 32.616C58.04 32.2 57.168 31.608 56.432 30.84C55.696 30.056 55.12 29.136 54.704 28.08C54.304 27.008 54.104 25.84 54.104 24.576C54.104 23.36 54.32 22.232 54.752 21.192C55.184 20.152 55.784 19.24 56.552 18.456C57.32 17.672 58.216 17.064 59.24 16.632C60.264 16.2 61.376 15.984 62.576 15.984C63.392 15.984 64.184 16.104 64.952 16.344C65.72 16.584 66.424 16.92 67.064 17.352C67.704 17.768 68.24 18.256 68.672 18.816L66.68 21C66.264 20.568 65.832 20.208 65.384 19.92C64.952 19.616 64.496 19.392 64.016 19.248C63.552 19.088 63.072 19.008 62.576 19.008C61.84 19.008 61.144 19.144 60.488 19.416C59.848 19.688 59.288 20.072 58.808 20.568C58.344 21.064 57.976 21.656 57.704 22.344C57.432 23.016 57.296 23.768 57.296 24.6C57.296 25.448 57.424 26.216 57.68 26.904C57.952 27.592 58.328 28.184 58.808 28.68C59.304 29.176 59.888 29.56 60.56 29.832C61.248 30.088 62 30.216 62.816 30.216C63.344 30.216 63.856 30.144 64.352 30C64.848 29.856 65.304 29.656 65.72 29.4C66.152 29.128 66.544 28.816 66.896 28.464L68.432 30.936C68.048 31.368 67.536 31.76 66.896 32.112C66.256 32.464 65.536 32.744 64.736 32.952C63.952 33.144 63.168 33.24 62.384 33.24ZM76.9183 33.24C75.6543 33.24 74.5263 32.96 73.5343 32.4C72.5423 31.824 71.7583 31.04 71.1823 30.048C70.6063 29.056 70.3183 27.928 70.3183 26.664C70.3183 25.4 70.6063 24.272 71.1823 23.28C71.7583 22.288 72.5423 21.512 73.5343 20.952C74.5263 20.376 75.6543 20.088 76.9183 20.088C78.1663 20.088 79.2863 20.376 80.2783 20.952C81.2703 21.512 82.0463 22.288 82.6063 23.28C83.1823 24.272 83.4703 25.4 83.4703 26.664C83.4703 27.928 83.1823 29.056 82.6063 30.048C82.0463 31.04 81.2703 31.824 80.2783 32.4C79.2863 32.96 78.1663 33.24 76.9183 33.24ZM76.9183 30.624C77.6063 30.624 78.2143 30.448 78.7423 30.096C79.2863 29.744 79.7103 29.272 80.0143 28.68C80.3343 28.088 80.4863 27.416 80.4703 26.664C80.4863 25.896 80.3343 25.216 80.0143 24.624C79.7103 24.032 79.2863 23.568 78.7423 23.232C78.2143 22.88 77.6063 22.704 76.9183 22.704C76.2303 22.704 75.6063 22.88 75.0463 23.232C74.5023 23.568 74.0783 24.04 73.7743 24.648C73.4703 25.24 73.3183 25.912 73.3183 26.664C73.3183 27.416 73.4703 28.088 73.7743 28.68C74.0783 29.272 74.5023 29.744 75.0463 30.096C75.6063 30.448 76.2303 30.624 76.9183 30.624ZM86.0628 33V20.352H88.9668L89.0148 22.896L88.5348 23.088C88.6788 22.672 88.8948 22.288 89.1828 21.936C89.4708 21.568 89.8148 21.256 90.2148 21C90.6148 20.728 91.0388 20.52 91.4868 20.376C91.9348 20.216 92.3908 20.136 92.8548 20.136C93.5428 20.136 94.1508 20.248 94.6788 20.472C95.2228 20.68 95.6708 21.016 96.0228 21.48C96.3908 21.944 96.6628 22.536 96.8388 23.256L96.3828 23.16L96.5748 22.776C96.7508 22.392 96.9988 22.048 97.3188 21.744C97.6388 21.424 97.9988 21.144 98.3988 20.904C98.7988 20.648 99.2148 20.456 99.6468 20.328C100.095 20.2 100.535 20.136 100.967 20.136C101.927 20.136 102.727 20.328 103.367 20.712C104.007 21.096 104.487 21.68 104.807 22.464C105.127 23.248 105.287 24.216 105.287 25.368V33H102.311V25.56C102.311 24.92 102.223 24.392 102.047 23.976C101.887 23.56 101.631 23.256 101.279 23.064C100.943 22.856 100.519 22.752 100.007 22.752C99.6068 22.752 99.2228 22.824 98.8548 22.968C98.5028 23.096 98.1988 23.288 97.9428 23.544C97.6868 23.784 97.4868 24.064 97.3428 24.384C97.1988 24.704 97.1268 25.056 97.1268 25.44V33H94.1508V25.536C94.1508 24.928 94.0628 24.424 93.8868 24.024C93.7108 23.608 93.4548 23.296 93.1188 23.088C92.7828 22.864 92.3748 22.752 91.8948 22.752C91.4948 22.752 91.1188 22.824 90.7668 22.968C90.4148 23.096 90.1108 23.28 89.8548 23.52C89.5988 23.76 89.3988 24.04 89.2548 24.36C89.1108 24.68 89.0388 25.032 89.0388 25.416V33H86.0628ZM108.564 38.28V20.352H111.468L111.516 23.232L111.012 23.016C111.108 22.52 111.38 22.056 111.828 21.624C112.276 21.176 112.82 20.816 113.46 20.544C114.116 20.272 114.796 20.136 115.5 20.136C116.62 20.136 117.612 20.416 118.476 20.976C119.356 21.536 120.044 22.304 120.54 23.28C121.052 24.256 121.308 25.384 121.308 26.664C121.308 27.928 121.052 29.056 120.54 30.048C120.044 31.024 119.356 31.8 118.476 32.376C117.612 32.936 116.636 33.216 115.548 33.216C114.812 33.216 114.1 33.072 113.412 32.784C112.74 32.496 112.164 32.12 111.684 31.656C111.22 31.192 110.932 30.704 110.82 30.192L111.54 29.856V38.28H108.564ZM114.948 30.6C115.62 30.6 116.22 30.432 116.748 30.096C117.276 29.76 117.684 29.296 117.972 28.704C118.276 28.112 118.428 27.432 118.428 26.664C118.428 25.896 118.284 25.224 117.996 24.648C117.708 24.056 117.3 23.592 116.772 23.256C116.244 22.92 115.636 22.752 114.948 22.752C114.244 22.752 113.628 22.92 113.1 23.256C112.588 23.576 112.18 24.032 111.876 24.624C111.572 25.216 111.42 25.896 111.42 26.664C111.42 27.432 111.572 28.112 111.876 28.704C112.18 29.296 112.588 29.76 113.1 30.096C113.628 30.432 114.244 30.6 114.948 30.6ZM123.939 33V20.352H126.843L126.891 24.384L126.483 23.472C126.659 22.832 126.963 22.256 127.395 21.744C127.827 21.232 128.323 20.832 128.883 20.544C129.459 20.24 130.059 20.088 130.683 20.088C130.955 20.088 131.211 20.112 131.451 20.16C131.707 20.208 131.915 20.264 132.075 20.328L131.283 23.568C131.107 23.472 130.891 23.392 130.635 23.328C130.379 23.264 130.123 23.232 129.867 23.232C129.467 23.232 129.083 23.312 128.715 23.472C128.363 23.616 128.051 23.824 127.779 24.096C127.507 24.368 127.291 24.688 127.131 25.056C126.987 25.408 126.915 25.808 126.915 26.256V33H123.939ZM138.277 33.24C137.237 33.24 136.293 32.952 135.445 32.376C134.597 31.8 133.917 31.016 133.405 30.024C132.893 29.032 132.637 27.904 132.637 26.64C132.637 25.376 132.893 24.248 133.405 23.256C133.917 22.264 134.613 21.488 135.493 20.928C136.373 20.368 137.365 20.088 138.469 20.088C139.109 20.088 139.693 20.184 140.221 20.376C140.749 20.552 141.213 20.808 141.613 21.144C142.013 21.48 142.341 21.864 142.597 22.296C142.869 22.728 143.053 23.192 143.149 23.688L142.501 23.52V20.352H145.477V33H142.477V29.976L143.173 29.856C143.061 30.288 142.853 30.712 142.549 31.128C142.261 31.528 141.893 31.888 141.445 32.208C141.013 32.512 140.525 32.76 139.981 32.952C139.453 33.144 138.885 33.24 138.277 33.24ZM139.093 30.624C139.781 30.624 140.389 30.456 140.917 30.12C141.445 29.784 141.853 29.32 142.141 28.728C142.445 28.12 142.597 27.424 142.597 26.64C142.597 25.872 142.445 25.192 142.141 24.6C141.853 24.008 141.445 23.544 140.917 23.208C140.389 22.872 139.781 22.704 139.093 22.704C138.405 22.704 137.797 22.872 137.269 23.208C136.757 23.544 136.357 24.008 136.069 24.6C135.781 25.192 135.637 25.872 135.637 26.64C135.637 27.424 135.781 28.12 136.069 28.728C136.357 29.32 136.757 29.784 137.269 30.12C137.797 30.456 138.405 30.624 139.093 30.624ZM153.124 33.24C152.004 33.24 150.996 33.056 150.1 32.688C149.22 32.304 148.5 31.76 147.94 31.056L149.86 29.4C150.34 29.944 150.876 30.336 151.468 30.576C152.06 30.816 152.684 30.936 153.34 30.936C153.612 30.936 153.852 30.904 154.06 30.84C154.284 30.776 154.476 30.68 154.636 30.552C154.796 30.424 154.916 30.28 154.996 30.12C155.092 29.944 155.14 29.752 155.14 29.544C155.14 29.16 154.996 28.856 154.708 28.632C154.548 28.52 154.292 28.4 153.94 28.272C153.604 28.144 153.164 28.016 152.62 27.888C151.756 27.664 151.036 27.408 150.46 27.12C149.884 26.816 149.436 26.48 149.116 26.112C148.844 25.808 148.636 25.464 148.492 25.08C148.364 24.696 148.3 24.28 148.3 23.832C148.3 23.272 148.42 22.768 148.66 22.32C148.916 21.856 149.26 21.456 149.692 21.12C150.124 20.784 150.628 20.528 151.204 20.352C151.78 20.176 152.38 20.088 153.004 20.088C153.644 20.088 154.26 20.168 154.852 20.328C155.46 20.488 156.02 20.72 156.532 21.024C157.06 21.312 157.508 21.664 157.876 22.08L156.244 23.88C155.94 23.592 155.604 23.336 155.236 23.112C154.884 22.888 154.524 22.712 154.156 22.584C153.788 22.44 153.444 22.368 153.124 22.368C152.82 22.368 152.548 22.4 152.308 22.464C152.068 22.512 151.868 22.592 151.708 22.704C151.548 22.816 151.42 22.96 151.324 23.136C151.244 23.296 151.204 23.488 151.204 23.712C151.22 23.904 151.268 24.088 151.348 24.264C151.444 24.424 151.572 24.56 151.732 24.672C151.908 24.784 152.172 24.912 152.524 25.056C152.876 25.2 153.332 25.336 153.892 25.464C154.676 25.672 155.332 25.904 155.86 26.16C156.388 26.416 156.804 26.712 157.108 27.048C157.412 27.336 157.628 27.672 157.756 28.056C157.884 28.44 157.948 28.864 157.948 29.328C157.948 30.08 157.732 30.752 157.3 31.344C156.884 31.936 156.308 32.4 155.572 32.736C154.852 33.072 154.036 33.24 153.124 33.24ZM167.627 33V30.24H170.387V18.96H167.627V16.2H176.267V18.96H173.507V30.24H176.267V33H167.627ZM178.376 33L184.928 16.2H187.856L194.36 33H191.12L187.52 23.448C187.44 23.256 187.328 22.952 187.184 22.536C187.056 22.12 186.912 21.672 186.752 21.192C186.592 20.696 186.448 20.24 186.32 19.824C186.192 19.392 186.096 19.08 186.032 18.888L186.632 18.864C186.536 19.184 186.424 19.544 186.296 19.944C186.168 20.344 186.032 20.76 185.888 21.192C185.744 21.624 185.6 22.04 185.456 22.44C185.328 22.84 185.208 23.2 185.096 23.52L181.496 33H178.376ZM181.352 29.16L182.432 26.448H190.088L191.24 29.16H181.352Z" fill="black"/>
<defs>
<linearGradient id="paint0_linear_9_506" x1="29.3701" y1="6.85718" x2="-12.5721" y2="-0.829201" gradientUnits="userSpaceOnUse">
<stop stop-color="#1A7068"/>
<stop offset="1" stop-color="#32D6C7"/>
</linearGradient>
<linearGradient id="paint1_linear_9_506" x1="18.169" y1="28.4871" x2="61.9883" y2="109.911" gradientUnits="userSpaceOnUse">
<stop stop-color="#1A7068"/>
<stop offset="1" stop-color="#32D6C8"/>
</linearGradient>
<linearGradient id="paint2_linear_9_506" x1="15.1266" y1="27.7047" x2="17.7916" y2="-24.5067" gradientUnits="userSpaceOnUse">
<stop stop-color="#1CCCE3"/>
<stop offset="1" stop-color="#10717D"/>
</linearGradient>
<linearGradient id="paint3_linear_9_506" x1="15.1266" y1="27.7047" x2="17.7916" y2="-24.5067" gradientUnits="userSpaceOnUse">
<stop stop-color="#1CCCE3"/>
<stop offset="1" stop-color="#10717D"/>
</linearGradient>
<linearGradient id="paint4_linear_9_506" x1="34.5558" y1="20.2262" x2="32.649" y2="61.4844" gradientUnits="userSpaceOnUse">
<stop stop-color="#1CCCE3"/>
<stop offset="1" stop-color="#10717D"/>
</linearGradient>
<clipPath id="clip0_9_506">
<rect width="39.9184" height="34.2857" fill="white" transform="translate(4.04077 6.85718)"/>
</clipPath>
</defs>
</svg>
